<svg xmlns="http://www.w3.org/2000/svg" width="38" height="42" viewBox="0 0 38 42" shape-rendering="crispEdges"><rect x="5" y="0" width="1" height="1" fill="#432b1c"/><rect x="5" y="1" width="1" height="1" fill="#432b1c"/><rect x="5" y="2" width="1" height="1" fill="#432b1c"/><rect x="5" y="3" width="1" height="1" fill="#432b1c"/><rect x="5" y="4" width="1" height="1" fill="#432b1c"/><rect x="5" y="5" width="1" height="1" fill="#432b1c"/><rect x="5" y="6" width="1" height="1" fill="#432b1c"/><rect x="5" y="7" width="1" height="1" fill="#432b1c"/><rect x="5" y="8" width="1" height="1" fill="#432b1c"/><rect x="5" y="9" width="1" height="1" fill="#432b1c"/><rect x="5" y="10" width="1" height="1" fill="#432b1c"/><rect x="5" y="11" width="1" height="1" fill="#432b1c"/><rect x="5" y="12" width="1" height="1" fill="#795530"/><rect x="6" y="0" width="1" height="1" fill="#b7925d"/><rect x="6" y="1" width="1" height="1" fill="#b7925d"/><rect x="6" y="2" width="1" height="1" fill="#b7925d"/><rect x="6" y="3" width="1" height="1" fill="#b7925d"/><rect x="6" y="4" width="1" height="1" fill="#b7925d"/><rect x="6" y="5" width="1" height="1" fill="#b7925d"/><rect x="6" y="6" width="1" height="1" fill="#b7925d"/><rect x="6" y="7" width="1" height="1" fill="#b7925d"/><rect x="6" y="8" width="1" height="1" fill="#b7925d"/><rect x="6" y="9" width="1" height="1" fill="#b7925d"/><rect x="6" y="10" width="1" height="1" fill="#432b1c"/><rect x="6" y="11" width="1" height="1" fill="#b7925d"/><rect x="6" y="12" width="1" height="1" fill="#b7925d"/><rect x="7" y="10" width="1" height="1" fill="#432b1c"/><rect x="8" y="10" width="1" height="1" fill="#432b1c"/><rect x="9" y="10" width="1" height="1" fill="#432b1c"/><rect x="10" y="9" width="1" height="1" fill="#432b1c"/><rect x="11" y="9" width="1" height="1" fill="#432b1c"/><rect x="12" y="9" width="1" height="1" fill="#432b1c"/><rect x="13" y="9" width="1" height="1" fill="#432b1c"/><rect x="14" y="9" width="1" height="1" fill="#432b1c"/><rect x="15" y="9" width="1" height="1" fill="#432b1c"/><rect x="16" y="9" width="1" height="1" fill="#432b1c"/><rect x="17" y="9" width="1" height="1" fill="#432b1c"/><rect x="18" y="8" width="1" height="1" fill="#432b1c"/><rect x="19" y="8" width="1" height="1" fill="#432b1c"/><rect x="20" y="8" width="1" height="1" fill="#432b1c"/><rect x="21" y="8" width="1" height="1" fill="#432b1c"/><rect x="22" y="8" width="1" height="1" fill="#432b1c"/><rect x="23" y="9" width="1" height="1" fill="#432b1c"/><rect x="24" y="10" width="1" height="1" fill="#795530"/><rect x="25" y="11" width="1" height="1" fill="#795530"/><rect x="26" y="12" width="1" height="1" fill="#795530"/><rect x="27" y="13" width="1" height="1" fill="#795530"/><rect x="28" y="14" width="1" height="1" fill="#b7925d"/><rect x="29" y="14" width="1" height="1" fill="#432b1c"/><rect x="30" y="15" width="1" height="1" fill="#432b1c"/><rect x="31" y="16" width="1" height="1" fill="#432b1c"/><rect x="32" y="17" width="1" height="1" fill="#432b1c"/><rect x="33" y="18" width="1" height="1" fill="#432b1c"/><rect x="34" y="19" width="1" height="1" fill="#432b1c"/><rect x="35" y="20" width="1" height="1" fill="#432b1c"/><rect x="35" y="21" width="1" height="1" fill="#432b1c"/><rect x="34" y="22" width="1" height="1" fill="#b7925d"/><rect x="34" y="23" width="1" height="1" fill="#432b1c"/><rect x="33" y="24" width="1" height="1" fill="#432b1c"/><rect x="33" y="25" width="1" height="1" fill="#432b1c"/><rect x="33" y="26" width="1" height="1" fill="#432b1c"/><rect x="32" y="27" width="1" height="1" fill="#432b1c"/><rect x="32" y="28" width="1" height="1" fill="#432b1c"/><rect x="31" y="29" width="1" height="1" fill="#432b1c"/><rect x="31" y="30" width="1" height="1" fill="#432b1c"/><rect x="30" y="31" width="1" height="1" fill="#432b1c"/><rect x="30" y="32" width="1" height="1" fill="#432b1c"/><rect x="30" y="33" width="1" height="1" fill="#432b1c"/><rect x="29" y="34" width="1" height="1" fill="#b7925d"/><rect x="29" y="35" width="1" height="1" fill="#432b1c"/><rect x="28" y="36" width="1" height="1" fill="#432b1c"/><rect x="28" y="37" width="1" height="1" fill="#a47a3e"/><rect x="27" y="37" width="1" height="1" fill="#231b16"/><rect x="26" y="37" width="1" height="1" fill="#b7925d"/><rect x="25" y="37" width="1" height="1" fill="#432b1c"/><rect x="24" y="37" width="1" height="1" fill="#432b1c"/><rect x="23" y="38" width="1" height="1" fill="#432b1c"/><rect x="22" y="38" width="1" height="1" fill="#432b1c"/><rect x="21" y="38" width="1" height="1" fill="#432b1c"/><rect x="20" y="38" width="1" height="1" fill="#231b16"/><rect x="19" y="38" width="1" height="1" fill="#a47a3e"/><rect x="18" y="38" width="1" height="1" fill="#231b16"/><rect x="17" y="38" width="1" height="1" fill="#795530"/><rect x="16" y="38" width="1" height="1" fill="#432b1c"/><rect x="15" y="38" width="1" height="1" fill="#432b1c"/><rect x="14" y="39" width="1" height="1" fill="#432b1c"/><rect x="13" y="39" width="1" height="1" fill="#432b1c"/><rect x="12" y="39" width="1" height="1" fill="#432b1c"/><rect x="11" y="39" width="1" height="1" fill="#231b16"/><rect x="10" y="39" width="1" height="1" fill="#a47a3e"/><rect x="9" y="38" width="1" height="1" fill="#432b1c"/><rect x="9" y="37" width="1" height="1" fill="#795530"/><rect x="8" y="36" width="1" height="1" fill="#432b1c"/><rect x="8" y="35" width="1" height="1" fill="#432b1c"/><rect x="7" y="34" width="1" height="1" fill="#432b1c"/><rect x="7" y="33" width="1" height="1" fill="#432b1c"/><rect x="6" y="32" width="1" height="1" fill="#432b1c"/><rect x="5" y="31" width="1" height="1" fill="#432b1c"/><rect x="5" y="30" width="1" height="1" fill="#b7925d"/><rect x="4" y="29" width="1" height="1" fill="#432b1c"/><rect x="4" y="28" width="1" height="1" fill="#432b1c"/><rect x="3" y="27" width="1" height="1" fill="#432b1c"/><rect x="3" y="26" width="1" height="1" fill="#432b1c"/><rect x="2" y="25" width="1" height="1" fill="#432b1c"/><rect x="2" y="24" width="1" height="1" fill="#432b1c"/><rect x="2" y="23" width="1" height="1" fill="#432b1c"/><rect x="3" y="22" width="1" height="1" fill="#432b1c"/><rect x="3" y="21" width="1" height="1" fill="#432b1c"/><rect x="3" y="20" width="1" height="1" fill="#432b1c"/><rect x="3" y="19" width="1" height="1" fill="#432b1c"/><rect x="3" y="18" width="1" height="1" fill="#432b1c"/><rect x="4" y="17" width="1" height="1" fill="#b7925d"/><rect x="4" y="16" width="1" height="1" fill="#432b1c"/><rect x="4" y="15" width="1" height="1" fill="#432b1c"/><rect x="4" y="14" width="1" height="1" fill="#432b1c"/><rect x="4" y="13" width="1" height="1" fill="#432b1c"/><rect x="10" y="10" width="1" height="1" fill="#795530"/><rect x="11" y="10" width="1" height="1" fill="#b7925d"/><rect x="17" y="10" width="1" height="1" fill="#795530"/><rect x="18" y="10" width="1" height="1" fill="#b7925d"/><rect x="10" y="11" width="1" height="1" fill="#b7925d"/><rect x="11" y="11" width="1" height="1" fill="#795530"/><rect x="17" y="11" width="1" height="1" fill="#b7925d"/><rect x="18" y="11" width="1" height="1" fill="#795530"/><rect x="24" y="11" width="1" height="1" fill="#b7925d"/><rect x="9" y="12" width="1" height="1" fill="#b7925d"/><rect x="12" y="12" width="1" height="1" fill="#795530"/><rect x="16" y="12" width="1" height="1" fill="#b7925d"/><rect x="19" y="12" width="1" height="1" fill="#795530"/><rect x="23" y="12" width="1" height="1" fill="#b7925d"/><rect x="6" y="13" width="1" height="1" fill="#795530"/><rect x="8" y="13" width="1" height="1" fill="#b7925d"/><rect x="13" y="13" width="1" height="1" fill="#795530"/><rect x="15" y="13" width="1" height="1" fill="#b7925d"/><rect x="20" y="13" width="1" height="1" fill="#795530"/><rect x="22" y="13" width="1" height="1" fill="#b7925d"/><rect x="7" y="14" width="1" height="1" fill="#b7925d"/><rect x="14" y="14" width="1" height="1" fill="#b7925d"/><rect x="21" y="14" width="1" height="1" fill="#b7925d"/><rect x="6" y="15" width="1" height="1" fill="#b7925d"/><rect x="8" y="15" width="1" height="1" fill="#795530"/><rect x="13" y="15" width="1" height="1" fill="#b7925d"/><rect x="15" y="15" width="1" height="1" fill="#795530"/><rect x="20" y="15" width="1" height="1" fill="#b7925d"/><rect x="22" y="15" width="1" height="1" fill="#795530"/><rect x="27" y="15" width="1" height="1" fill="#b7925d"/><rect x="29" y="15" width="1" height="1" fill="#795530"/><rect x="5" y="16" width="1" height="1" fill="#b7925d"/><rect x="9" y="16" width="1" height="1" fill="#795530"/><rect x="12" y="16" width="1" height="1" fill="#b7925d"/><rect x="16" y="16" width="1" height="1" fill="#795530"/><rect x="19" y="16" width="1" height="1" fill="#b7925d"/><rect x="23" y="16" width="1" height="1" fill="#795530"/><rect x="26" y="16" width="1" height="1" fill="#b7925d"/><rect x="30" y="16" width="1" height="1" fill="#795530"/><rect x="10" y="17" width="1" height="1" fill="#795530"/><rect x="11" y="17" width="1" height="1" fill="#b7925d"/><rect x="17" y="17" width="1" height="1" fill="#795530"/><rect x="18" y="17" width="1" height="1" fill="#b7925d"/><rect x="24" y="17" width="1" height="1" fill="#795530"/><rect x="25" y="17" width="1" height="1" fill="#b7925d"/><rect x="31" y="17" width="1" height="1" fill="#795530"/><rect x="4" y="18" width="1" height="1" fill="#795530"/><rect x="10" y="18" width="1" height="1" fill="#b7925d"/><rect x="11" y="18" width="1" height="1" fill="#795530"/><rect x="17" y="18" width="1" height="1" fill="#b7925d"/><rect x="18" y="18" width="1" height="1" fill="#795530"/><rect x="24" y="18" width="1" height="1" fill="#b7925d"/><rect x="25" y="18" width="1" height="1" fill="#795530"/><rect x="31" y="18" width="1" height="1" fill="#b7925d"/><rect x="32" y="18" width="1" height="1" fill="#795530"/><rect x="5" y="19" width="1" height="1" fill="#795530"/><rect x="9" y="19" width="1" height="1" fill="#b7925d"/><rect x="12" y="19" width="1" height="1" fill="#795530"/><rect x="16" y="19" width="1" height="1" fill="#b7925d"/><rect x="19" y="19" width="1" height="1" fill="#795530"/><rect x="23" y="19" width="1" height="1" fill="#b7925d"/><rect x="26" y="19" width="1" height="1" fill="#795530"/><rect x="30" y="19" width="1" height="1" fill="#b7925d"/><rect x="33" y="19" width="1" height="1" fill="#795530"/><rect x="6" y="20" width="1" height="1" fill="#795530"/><rect x="8" y="20" width="1" height="1" fill="#b7925d"/><rect x="13" y="20" width="1" height="1" fill="#795530"/><rect x="15" y="20" width="1" height="1" fill="#b7925d"/><rect x="20" y="20" width="1" height="1" fill="#795530"/><rect x="22" y="20" width="1" height="1" fill="#b7925d"/><rect x="27" y="20" width="1" height="1" fill="#795530"/><rect x="29" y="20" width="1" height="1" fill="#b7925d"/><rect x="34" y="20" width="1" height="1" fill="#795530"/><rect x="7" y="21" width="1" height="1" fill="#b7925d"/><rect x="14" y="21" width="1" height="1" fill="#b7925d"/><rect x="21" y="21" width="1" height="1" fill="#b7925d"/><rect x="28" y="21" width="1" height="1" fill="#b7925d"/><rect x="6" y="22" width="1" height="1" fill="#b7925d"/><rect x="8" y="22" width="1" height="1" fill="#795530"/><rect x="13" y="22" width="1" height="1" fill="#b7925d"/><rect x="15" y="22" width="1" height="1" fill="#795530"/><rect x="20" y="22" width="1" height="1" fill="#b7925d"/><rect x="22" y="22" width="1" height="1" fill="#795530"/><rect x="27" y="22" width="1" height="1" fill="#b7925d"/><rect x="29" y="22" width="1" height="1" fill="#795530"/><rect x="5" y="23" width="1" height="1" fill="#b7925d"/><rect x="9" y="23" width="1" height="1" fill="#795530"/><rect x="12" y="23" width="1" height="1" fill="#b7925d"/><rect x="16" y="23" width="1" height="1" fill="#795530"/><rect x="19" y="23" width="1" height="1" fill="#b7925d"/><rect x="23" y="23" width="1" height="1" fill="#795530"/><rect x="26" y="23" width="1" height="1" fill="#b7925d"/><rect x="30" y="23" width="1" height="1" fill="#795530"/><rect x="33" y="23" width="1" height="1" fill="#b7925d"/><rect x="3" y="24" width="1" height="1" fill="#795530"/><rect x="4" y="24" width="1" height="1" fill="#b7925d"/><rect x="10" y="24" width="1" height="1" fill="#795530"/><rect x="11" y="24" width="1" height="1" fill="#b7925d"/><rect x="17" y="24" width="1" height="1" fill="#795530"/><rect x="18" y="24" width="1" height="1" fill="#b7925d"/><rect x="24" y="24" width="1" height="1" fill="#795530"/><rect x="25" y="24" width="1" height="1" fill="#b7925d"/><rect x="31" y="24" width="1" height="1" fill="#795530"/><rect x="32" y="24" width="1" height="1" fill="#b7925d"/><rect x="3" y="25" width="1" height="1" fill="#b7925d"/><rect x="4" y="25" width="1" height="1" fill="#795530"/><rect x="10" y="25" width="1" height="1" fill="#b7925d"/><rect x="11" y="25" width="1" height="1" fill="#795530"/><rect x="17" y="25" width="1" height="1" fill="#b7925d"/><rect x="18" y="25" width="1" height="1" fill="#795530"/><rect x="24" y="25" width="1" height="1" fill="#b7925d"/><rect x="25" y="25" width="1" height="1" fill="#795530"/><rect x="31" y="25" width="1" height="1" fill="#b7925d"/><rect x="32" y="25" width="1" height="1" fill="#795530"/><rect x="5" y="26" width="1" height="1" fill="#795530"/><rect x="9" y="26" width="1" height="1" fill="#b7925d"/><rect x="12" y="26" width="1" height="1" fill="#795530"/><rect x="16" y="26" width="1" height="1" fill="#b7925d"/><rect x="19" y="26" width="1" height="1" fill="#795530"/><rect x="23" y="26" width="1" height="1" fill="#b7925d"/><rect x="26" y="26" width="1" height="1" fill="#795530"/><rect x="30" y="26" width="1" height="1" fill="#b7925d"/><rect x="6" y="27" width="1" height="1" fill="#795530"/><rect x="8" y="27" width="1" height="1" fill="#b7925d"/><rect x="13" y="27" width="1" height="1" fill="#795530"/><rect x="15" y="27" width="1" height="1" fill="#b7925d"/><rect x="20" y="27" width="1" height="1" fill="#795530"/><rect x="22" y="27" width="1" height="1" fill="#b7925d"/><rect x="27" y="27" width="1" height="1" fill="#795530"/><rect x="29" y="27" width="1" height="1" fill="#b7925d"/><rect x="7" y="28" width="1" height="1" fill="#b7925d"/><rect x="14" y="28" width="1" height="1" fill="#b7925d"/><rect x="21" y="28" width="1" height="1" fill="#b7925d"/><rect x="28" y="28" width="1" height="1" fill="#b7925d"/><rect x="6" y="29" width="1" height="1" fill="#b7925d"/><rect x="8" y="29" width="1" height="1" fill="#795530"/><rect x="13" y="29" width="1" height="1" fill="#b7925d"/><rect x="15" y="29" width="1" height="1" fill="#795530"/><rect x="20" y="29" width="1" height="1" fill="#b7925d"/><rect x="22" y="29" width="1" height="1" fill="#795530"/><rect x="27" y="29" width="1" height="1" fill="#b7925d"/><rect x="29" y="29" width="1" height="1" fill="#795530"/><rect x="9" y="30" width="1" height="1" fill="#795530"/><rect x="12" y="30" width="1" height="1" fill="#b7925d"/><rect x="16" y="30" width="1" height="1" fill="#795530"/><rect x="19" y="30" width="1" height="1" fill="#b7925d"/><rect x="23" y="30" width="1" height="1" fill="#795530"/><rect x="26" y="30" width="1" height="1" fill="#b7925d"/><rect x="30" y="30" width="1" height="1" fill="#795530"/><rect x="10" y="31" width="1" height="1" fill="#795530"/><rect x="11" y="31" width="1" height="1" fill="#b7925d"/><rect x="17" y="31" width="1" height="1" fill="#795530"/><rect x="18" y="31" width="1" height="1" fill="#b7925d"/><rect x="24" y="31" width="1" height="1" fill="#795530"/><rect x="25" y="31" width="1" height="1" fill="#b7925d"/><rect x="10" y="32" width="1" height="1" fill="#b7925d"/><rect x="11" y="32" width="1" height="1" fill="#795530"/><rect x="17" y="32" width="1" height="1" fill="#b7925d"/><rect x="18" y="32" width="1" height="1" fill="#795530"/><rect x="24" y="32" width="1" height="1" fill="#b7925d"/><rect x="25" y="32" width="1" height="1" fill="#795530"/><rect x="9" y="33" width="1" height="1" fill="#b7925d"/><rect x="12" y="33" width="1" height="1" fill="#795530"/><rect x="16" y="33" width="1" height="1" fill="#b7925d"/><rect x="19" y="33" width="1" height="1" fill="#795530"/><rect x="23" y="33" width="1" height="1" fill="#b7925d"/><rect x="26" y="33" width="1" height="1" fill="#795530"/><rect x="8" y="34" width="1" height="1" fill="#b7925d"/><rect x="13" y="34" width="1" height="1" fill="#795530"/><rect x="15" y="34" width="1" height="1" fill="#b7925d"/><rect x="20" y="34" width="1" height="1" fill="#795530"/><rect x="22" y="34" width="1" height="1" fill="#b7925d"/><rect x="27" y="34" width="1" height="1" fill="#795530"/><rect x="14" y="35" width="1" height="1" fill="#b7925d"/><rect x="21" y="35" width="1" height="1" fill="#b7925d"/><rect x="28" y="35" width="1" height="1" fill="#b7925d"/><rect x="13" y="36" width="1" height="1" fill="#b7925d"/><rect x="15" y="36" width="1" height="1" fill="#795530"/><rect x="20" y="36" width="1" height="1" fill="#b7925d"/><rect x="22" y="36" width="1" height="1" fill="#795530"/><rect x="27" y="36" width="1" height="1" fill="#b7925d"/><rect x="12" y="37" width="1" height="1" fill="#b7925d"/><rect x="16" y="37" width="1" height="1" fill="#795530"/><rect x="19" y="37" width="1" height="1" fill="#b7925d"/><rect x="23" y="37" width="1" height="1" fill="#795530"/><rect x="10" y="38" width="1" height="1" fill="#795530"/><rect x="11" y="38" width="1" height="1" fill="#b7925d"/><rect x="24" y="38" width="1" height="1" fill="#795530"/><rect x="25" y="38" width="1" height="1" fill="#b7925d"/><rect x="9" y="39" width="1" height="1" fill="#231b16"/><rect x="9" y="40" width="1" height="1" fill="#231b16"/><rect x="10" y="40" width="1" height="1" fill="#654422"/><rect x="11" y="40" width="1" height="1" fill="#231b16"/><rect x="18" y="39" width="1" height="1" fill="#231b16"/><rect x="19" y="39" width="1" height="1" fill="#654422"/><rect x="20" y="39" width="1" height="1" fill="#231b16"/><rect x="29" y="37" width="1" height="1" fill="#231b16"/><rect x="27" y="38" width="1" height="1" fill="#231b16"/><rect x="28" y="38" width="1" height="1" fill="#654422"/><rect x="29" y="38" width="1" height="1" fill="#231b16"/></svg>
